<mxfile host="app.diagrams.net" modified="2024-03-24T08:07:26.264Z" agent="Mozilla/5.0 (Windows NT 10.0; Win64; x64) AppleWebKit/537.36 (KHTML, like Gecko) Chrome/123.0.0.0 Safari/537.36" etag="aIiujoFDhmKqaer9cmFQ" version="24.1.0" type="device">
  <diagram name="Page-1" id="uil2a8Eq5bWKw9WmgUum">
    <mxGraphModel dx="1311" dy="720" grid="1" gridSize="10" guides="1" tooltips="1" connect="1" arrows="1" fold="1" page="1" pageScale="1" pageWidth="850" pageHeight="1100" math="0" shadow="0">
      <root>
        <mxCell id="0" />
        <mxCell id="1" parent="0" />
        <mxCell id="_AiRwu0lAD3Z_JFmDLvR-2" value="www.foobar.com" style="endArrow=classic;html=1;rounded=0;entryX=0;entryY=0.5;entryDx=0;entryDy=0;entryPerimeter=0;" edge="1" parent="1" source="_AiRwu0lAD3Z_JFmDLvR-33" target="_AiRwu0lAD3Z_JFmDLvR-3">
          <mxGeometry width="50" height="50" relative="1" as="geometry">
            <mxPoint x="220" y="150" as="sourcePoint" />
            <mxPoint x="380" y="150" as="targetPoint" />
          </mxGeometry>
        </mxCell>
        <mxCell id="_AiRwu0lAD3Z_JFmDLvR-8" value="8.8.8.8" style="edgeStyle=orthogonalEdgeStyle;rounded=0;orthogonalLoop=1;jettySize=auto;html=1;exitX=0;exitY=0.65;exitDx=0;exitDy=0;exitPerimeter=0;" edge="1" parent="1" source="_AiRwu0lAD3Z_JFmDLvR-3" target="_AiRwu0lAD3Z_JFmDLvR-33">
          <mxGeometry relative="1" as="geometry">
            <mxPoint x="150" y="180" as="targetPoint" />
            <Array as="points">
              <mxPoint x="490" y="181" />
              <mxPoint x="116" y="181" />
            </Array>
          </mxGeometry>
        </mxCell>
        <mxCell id="_AiRwu0lAD3Z_JFmDLvR-3" value="" style="shape=tape;whiteSpace=wrap;html=1;" vertex="1" parent="1">
          <mxGeometry x="490" y="20" width="340" height="310" as="geometry" />
        </mxCell>
        <mxCell id="_AiRwu0lAD3Z_JFmDLvR-9" value="n&amp;nbsp;" style="edgeStyle=orthogonalEdgeStyle;rounded=0;orthogonalLoop=1;jettySize=auto;html=1;exitX=1;exitY=0.5;exitDx=0;exitDy=0;entryX=0;entryY=0.5;entryDx=0;entryDy=0;" edge="1" parent="1" source="_AiRwu0lAD3Z_JFmDLvR-4" target="_AiRwu0lAD3Z_JFmDLvR-6">
          <mxGeometry relative="1" as="geometry" />
        </mxCell>
        <mxCell id="_AiRwu0lAD3Z_JFmDLvR-4" value="DNS" style="shape=image;html=1;verticalLabelPosition=bottom;verticalAlign=top;imageAspect=1;aspect=fixed;image=img/clipart/Gear_128x128.png" vertex="1" parent="1">
          <mxGeometry x="530" y="140" width="52" height="61" as="geometry" />
        </mxCell>
        <mxCell id="_AiRwu0lAD3Z_JFmDLvR-10" style="edgeStyle=orthogonalEdgeStyle;rounded=0;orthogonalLoop=1;jettySize=auto;html=1;exitX=0.5;exitY=1;exitDx=0;exitDy=0;entryX=1;entryY=0.5;entryDx=0;entryDy=0;" edge="1" parent="1" source="_AiRwu0lAD3Z_JFmDLvR-6" target="_AiRwu0lAD3Z_JFmDLvR-7">
          <mxGeometry relative="1" as="geometry" />
        </mxCell>
        <mxCell id="_AiRwu0lAD3Z_JFmDLvR-6" value="DNS" style="shape=image;html=1;verticalLabelPosition=bottom;verticalAlign=top;imageAspect=1;aspect=fixed;image=img/clipart/Gear_128x128.png" vertex="1" parent="1">
          <mxGeometry x="710" y="70" width="52" height="61" as="geometry" />
        </mxCell>
        <mxCell id="_AiRwu0lAD3Z_JFmDLvR-11" style="edgeStyle=orthogonalEdgeStyle;rounded=0;orthogonalLoop=1;jettySize=auto;html=1;exitX=0;exitY=1;exitDx=0;exitDy=0;entryX=0.25;entryY=1;entryDx=0;entryDy=0;" edge="1" parent="1" source="_AiRwu0lAD3Z_JFmDLvR-7" target="_AiRwu0lAD3Z_JFmDLvR-4">
          <mxGeometry relative="1" as="geometry" />
        </mxCell>
        <mxCell id="_AiRwu0lAD3Z_JFmDLvR-7" value="DNS" style="shape=image;html=1;verticalLabelPosition=bottom;verticalAlign=top;imageAspect=1;aspect=fixed;image=img/clipart/Gear_128x128.png" vertex="1" parent="1">
          <mxGeometry x="600" y="190" width="52" height="61" as="geometry" />
        </mxCell>
        <mxCell id="_AiRwu0lAD3Z_JFmDLvR-58" value="8.8.8.8" style="edgeStyle=orthogonalEdgeStyle;rounded=0;orthogonalLoop=1;jettySize=auto;html=1;" edge="1" parent="1" source="_AiRwu0lAD3Z_JFmDLvR-33" target="_AiRwu0lAD3Z_JFmDLvR-34">
          <mxGeometry relative="1" as="geometry" />
        </mxCell>
        <mxCell id="_AiRwu0lAD3Z_JFmDLvR-33" value="" style="verticalLabelPosition=bottom;sketch=0;aspect=fixed;html=1;verticalAlign=top;strokeColor=none;align=center;outlineConnect=0;shape=mxgraph.citrix.laptop_1;" vertex="1" parent="1">
          <mxGeometry x="70" y="90" width="91" height="77" as="geometry" />
        </mxCell>
        <mxCell id="_AiRwu0lAD3Z_JFmDLvR-59" value="Response" style="edgeStyle=orthogonalEdgeStyle;rounded=0;orthogonalLoop=1;jettySize=auto;html=1;" edge="1" parent="1" source="_AiRwu0lAD3Z_JFmDLvR-34">
          <mxGeometry relative="1" as="geometry">
            <mxPoint x="50" y="150" as="targetPoint" />
          </mxGeometry>
        </mxCell>
        <mxCell id="_AiRwu0lAD3Z_JFmDLvR-34" value="SSL Certificate" style="verticalLabelPosition=bottom;sketch=0;aspect=fixed;html=1;verticalAlign=top;strokeColor=none;align=center;outlineConnect=0;shape=mxgraph.citrix.inspection;" vertex="1" parent="1">
          <mxGeometry x="70" y="427.5" width="70" height="65" as="geometry" />
        </mxCell>
        <mxCell id="_AiRwu0lAD3Z_JFmDLvR-35" value="Load Balancer (HAproxy)" style="verticalLabelPosition=bottom;sketch=0;aspect=fixed;html=1;verticalAlign=top;strokeColor=none;align=center;outlineConnect=0;shape=mxgraph.citrix.browser;" vertex="1" parent="1">
          <mxGeometry x="289.25" y="515" width="45.86" height="70" as="geometry" />
        </mxCell>
        <mxCell id="_AiRwu0lAD3Z_JFmDLvR-95" style="edgeStyle=orthogonalEdgeStyle;rounded=0;orthogonalLoop=1;jettySize=auto;html=1;" edge="1" parent="1" source="_AiRwu0lAD3Z_JFmDLvR-44" target="_AiRwu0lAD3Z_JFmDLvR-89">
          <mxGeometry relative="1" as="geometry" />
        </mxCell>
        <mxCell id="_AiRwu0lAD3Z_JFmDLvR-44" value="Server 4 (active)" style="verticalLabelPosition=bottom;sketch=0;aspect=fixed;html=1;verticalAlign=top;strokeColor=none;align=center;outlineConnect=0;shape=mxgraph.citrix.cache_server;" vertex="1" parent="1">
          <mxGeometry x="590.5" y="708.75" width="71" height="97.5" as="geometry" />
        </mxCell>
        <mxCell id="_AiRwu0lAD3Z_JFmDLvR-66" value="Using Round-Robing&lt;br&gt;Distribution Algorithm" style="text;html=1;align=center;verticalAlign=middle;whiteSpace=wrap;rounded=0;" vertex="1" parent="1">
          <mxGeometry x="596" y="470" width="60" height="30" as="geometry" />
        </mxCell>
        <mxCell id="_AiRwu0lAD3Z_JFmDLvR-98" style="edgeStyle=orthogonalEdgeStyle;rounded=0;orthogonalLoop=1;jettySize=auto;html=1;" edge="1" parent="1" source="_AiRwu0lAD3Z_JFmDLvR-68" target="_AiRwu0lAD3Z_JFmDLvR-87">
          <mxGeometry relative="1" as="geometry" />
        </mxCell>
        <mxCell id="_AiRwu0lAD3Z_JFmDLvR-68" value="Global Server 1" style="verticalLabelPosition=bottom;sketch=0;aspect=fixed;html=1;verticalAlign=top;strokeColor=none;align=center;outlineConnect=0;shape=mxgraph.citrix.geolocation_database;" vertex="1" parent="1">
          <mxGeometry x="80" y="720" width="85.45" height="79" as="geometry" />
        </mxCell>
        <mxCell id="_AiRwu0lAD3Z_JFmDLvR-97" style="edgeStyle=orthogonalEdgeStyle;rounded=0;orthogonalLoop=1;jettySize=auto;html=1;" edge="1" parent="1" source="_AiRwu0lAD3Z_JFmDLvR-69" target="_AiRwu0lAD3Z_JFmDLvR-86">
          <mxGeometry relative="1" as="geometry" />
        </mxCell>
        <mxCell id="_AiRwu0lAD3Z_JFmDLvR-69" value="Application Server 2" style="verticalLabelPosition=bottom;sketch=0;aspect=fixed;html=1;verticalAlign=top;strokeColor=none;align=center;outlineConnect=0;shape=mxgraph.citrix.globe;" vertex="1" parent="1">
          <mxGeometry x="230" y="720" width="78.5" height="75" as="geometry" />
        </mxCell>
        <mxCell id="_AiRwu0lAD3Z_JFmDLvR-96" style="edgeStyle=orthogonalEdgeStyle;rounded=0;orthogonalLoop=1;jettySize=auto;html=1;" edge="1" parent="1" source="_AiRwu0lAD3Z_JFmDLvR-70" target="_AiRwu0lAD3Z_JFmDLvR-88">
          <mxGeometry relative="1" as="geometry" />
        </mxCell>
        <mxCell id="_AiRwu0lAD3Z_JFmDLvR-70" value="Database Server 3&lt;div&gt;&lt;br&gt;&lt;/div&gt;" style="verticalLabelPosition=bottom;sketch=0;aspect=fixed;html=1;verticalAlign=top;strokeColor=none;align=center;outlineConnect=0;shape=mxgraph.citrix.router;" vertex="1" parent="1">
          <mxGeometry x="370" y="731.14" width="100" height="66.36" as="geometry" />
        </mxCell>
        <mxCell id="_AiRwu0lAD3Z_JFmDLvR-71" value="Firewall" style="verticalLabelPosition=bottom;sketch=0;aspect=fixed;html=1;verticalAlign=top;strokeColor=none;align=center;outlineConnect=0;shape=mxgraph.citrix.goto_meeting;fillColor=#FAB616;gradientColor=#E12800;gradientDirection=north;" vertex="1" parent="1">
          <mxGeometry x="97" y="660" width="37" height="37" as="geometry" />
        </mxCell>
        <mxCell id="_AiRwu0lAD3Z_JFmDLvR-72" value="Firewall" style="verticalLabelPosition=bottom;sketch=0;aspect=fixed;html=1;verticalAlign=top;strokeColor=none;align=center;outlineConnect=0;shape=mxgraph.citrix.goto_meeting;fillColor=#FAB616;gradientColor=#E12800;gradientDirection=north;" vertex="1" parent="1">
          <mxGeometry x="249.25" y="657" width="40" height="40" as="geometry" />
        </mxCell>
        <mxCell id="_AiRwu0lAD3Z_JFmDLvR-73" value="Firewall" style="verticalLabelPosition=bottom;sketch=0;aspect=fixed;html=1;verticalAlign=top;strokeColor=none;align=center;outlineConnect=0;shape=mxgraph.citrix.goto_meeting;fillColor=#FAB616;gradientColor=#E12800;gradientDirection=north;" vertex="1" parent="1">
          <mxGeometry x="385" y="660" width="40" height="40" as="geometry" />
        </mxCell>
        <mxCell id="_AiRwu0lAD3Z_JFmDLvR-74" value="Firewall" style="verticalLabelPosition=bottom;sketch=0;aspect=fixed;html=1;verticalAlign=top;strokeColor=none;align=center;outlineConnect=0;shape=mxgraph.citrix.goto_meeting;fillColor=#FAB616;gradientColor=#E12800;gradientDirection=north;" vertex="1" parent="1">
          <mxGeometry x="585.86" y="657" width="40" height="40" as="geometry" />
        </mxCell>
        <mxCell id="_AiRwu0lAD3Z_JFmDLvR-75" value="Load Balancer (HAproxy)" style="verticalLabelPosition=bottom;sketch=0;aspect=fixed;html=1;verticalAlign=top;strokeColor=none;align=center;outlineConnect=0;shape=mxgraph.citrix.browser;" vertex="1" parent="1">
          <mxGeometry x="570" y="515" width="45.86" height="70" as="geometry" />
        </mxCell>
        <mxCell id="_AiRwu0lAD3Z_JFmDLvR-76" value="Using Round-Robing&lt;br&gt;Distribution Algorithm" style="text;html=1;align=center;verticalAlign=middle;whiteSpace=wrap;rounded=0;" vertex="1" parent="1">
          <mxGeometry x="320" y="462.5" width="60" height="30" as="geometry" />
        </mxCell>
        <mxCell id="_AiRwu0lAD3Z_JFmDLvR-77" value="" style="endArrow=none;dashed=1;html=1;rounded=0;" edge="1" parent="1">
          <mxGeometry width="50" height="50" relative="1" as="geometry">
            <mxPoint x="340" y="540" as="sourcePoint" />
            <mxPoint x="560" y="510" as="targetPoint" />
            <Array as="points">
              <mxPoint x="460" y="510" />
            </Array>
          </mxGeometry>
        </mxCell>
        <mxCell id="_AiRwu0lAD3Z_JFmDLvR-78" value="" style="endArrow=none;dashed=1;html=1;rounded=0;" edge="1" parent="1">
          <mxGeometry width="50" height="50" relative="1" as="geometry">
            <mxPoint x="340" y="580" as="sourcePoint" />
            <mxPoint x="560" y="560" as="targetPoint" />
            <Array as="points">
              <mxPoint x="430" y="570" />
            </Array>
          </mxGeometry>
        </mxCell>
        <mxCell id="_AiRwu0lAD3Z_JFmDLvR-79" value="" style="endArrow=classic;html=1;rounded=0;" edge="1" parent="1" target="_AiRwu0lAD3Z_JFmDLvR-71">
          <mxGeometry width="50" height="50" relative="1" as="geometry">
            <mxPoint x="450" y="570" as="sourcePoint" />
            <mxPoint x="530" y="610" as="targetPoint" />
          </mxGeometry>
        </mxCell>
        <mxCell id="_AiRwu0lAD3Z_JFmDLvR-80" value="" style="endArrow=classic;html=1;rounded=0;" edge="1" parent="1" target="_AiRwu0lAD3Z_JFmDLvR-72">
          <mxGeometry width="50" height="50" relative="1" as="geometry">
            <mxPoint x="460" y="570" as="sourcePoint" />
            <mxPoint x="144" y="682" as="targetPoint" />
          </mxGeometry>
        </mxCell>
        <mxCell id="_AiRwu0lAD3Z_JFmDLvR-81" value="" style="endArrow=classic;html=1;rounded=0;entryX=1.125;entryY=0;entryDx=0;entryDy=0;entryPerimeter=0;" edge="1" parent="1" target="_AiRwu0lAD3Z_JFmDLvR-73">
          <mxGeometry width="50" height="50" relative="1" as="geometry">
            <mxPoint x="460" y="570" as="sourcePoint" />
            <mxPoint x="299" y="676" as="targetPoint" />
          </mxGeometry>
        </mxCell>
        <mxCell id="_AiRwu0lAD3Z_JFmDLvR-82" value="" style="endArrow=classic;html=1;rounded=0;" edge="1" parent="1" target="_AiRwu0lAD3Z_JFmDLvR-74">
          <mxGeometry width="50" height="50" relative="1" as="geometry">
            <mxPoint x="470" y="570" as="sourcePoint" />
            <mxPoint x="440" y="670" as="targetPoint" />
          </mxGeometry>
        </mxCell>
        <mxCell id="_AiRwu0lAD3Z_JFmDLvR-83" value="8.8.8.8" style="endArrow=classic;html=1;rounded=0;" edge="1" parent="1" source="_AiRwu0lAD3Z_JFmDLvR-34">
          <mxGeometry width="50" height="50" relative="1" as="geometry">
            <mxPoint x="250" y="370" as="sourcePoint" />
            <mxPoint x="520" y="510" as="targetPoint" />
            <Array as="points">
              <mxPoint x="520" y="370" />
            </Array>
          </mxGeometry>
        </mxCell>
        <mxCell id="_AiRwu0lAD3Z_JFmDLvR-85" value="" style="endArrow=classic;html=1;rounded=0;" edge="1" parent="1">
          <mxGeometry width="50" height="50" relative="1" as="geometry">
            <mxPoint x="480" y="510" as="sourcePoint" />
            <mxPoint x="150" y="470" as="targetPoint" />
            <Array as="points">
              <mxPoint x="470" y="400" />
            </Array>
          </mxGeometry>
        </mxCell>
        <mxCell id="_AiRwu0lAD3Z_JFmDLvR-93" style="edgeStyle=orthogonalEdgeStyle;rounded=0;orthogonalLoop=1;jettySize=auto;html=1;" edge="1" parent="1" source="_AiRwu0lAD3Z_JFmDLvR-86" target="_AiRwu0lAD3Z_JFmDLvR-90">
          <mxGeometry relative="1" as="geometry">
            <Array as="points">
              <mxPoint x="283" y="1030" />
            </Array>
          </mxGeometry>
        </mxCell>
        <mxCell id="_AiRwu0lAD3Z_JFmDLvR-86" value="Monitoring Client 2" style="verticalLabelPosition=bottom;sketch=0;aspect=fixed;html=1;verticalAlign=top;strokeColor=none;align=center;outlineConnect=0;shape=mxgraph.citrix.process;" vertex="1" parent="1">
          <mxGeometry x="256.5" y="880" width="52" height="62" as="geometry" />
        </mxCell>
        <mxCell id="_AiRwu0lAD3Z_JFmDLvR-94" style="edgeStyle=orthogonalEdgeStyle;rounded=0;orthogonalLoop=1;jettySize=auto;html=1;" edge="1" parent="1" source="_AiRwu0lAD3Z_JFmDLvR-87" target="_AiRwu0lAD3Z_JFmDLvR-90">
          <mxGeometry relative="1" as="geometry">
            <Array as="points">
              <mxPoint x="133" y="1044" />
            </Array>
          </mxGeometry>
        </mxCell>
        <mxCell id="_AiRwu0lAD3Z_JFmDLvR-87" value="Monitoring Client 1" style="verticalLabelPosition=bottom;sketch=0;aspect=fixed;html=1;verticalAlign=top;strokeColor=none;align=center;outlineConnect=0;shape=mxgraph.citrix.process;" vertex="1" parent="1">
          <mxGeometry x="106.73" y="880" width="52" height="62" as="geometry" />
        </mxCell>
        <mxCell id="_AiRwu0lAD3Z_JFmDLvR-92" style="edgeStyle=orthogonalEdgeStyle;rounded=0;orthogonalLoop=1;jettySize=auto;html=1;" edge="1" parent="1" source="_AiRwu0lAD3Z_JFmDLvR-88" target="_AiRwu0lAD3Z_JFmDLvR-90">
          <mxGeometry relative="1" as="geometry">
            <Array as="points">
              <mxPoint x="436" y="1030" />
            </Array>
          </mxGeometry>
        </mxCell>
        <mxCell id="_AiRwu0lAD3Z_JFmDLvR-88" value="Monitoring Client 3" style="verticalLabelPosition=bottom;sketch=0;aspect=fixed;html=1;verticalAlign=top;strokeColor=none;align=center;outlineConnect=0;shape=mxgraph.citrix.process;" vertex="1" parent="1">
          <mxGeometry x="410" y="880" width="52" height="62" as="geometry" />
        </mxCell>
        <mxCell id="_AiRwu0lAD3Z_JFmDLvR-91" style="edgeStyle=orthogonalEdgeStyle;rounded=0;orthogonalLoop=1;jettySize=auto;html=1;" edge="1" parent="1" source="_AiRwu0lAD3Z_JFmDLvR-89">
          <mxGeometry relative="1" as="geometry">
            <mxPoint x="410" y="1040" as="targetPoint" />
            <Array as="points">
              <mxPoint x="630" y="1040" />
            </Array>
          </mxGeometry>
        </mxCell>
        <mxCell id="_AiRwu0lAD3Z_JFmDLvR-89" value="Monitoring Client 4" style="verticalLabelPosition=bottom;sketch=0;aspect=fixed;html=1;verticalAlign=top;strokeColor=none;align=center;outlineConnect=0;shape=mxgraph.citrix.process;" vertex="1" parent="1">
          <mxGeometry x="604" y="880" width="52" height="62" as="geometry" />
        </mxCell>
        <mxCell id="_AiRwu0lAD3Z_JFmDLvR-90" value="" style="verticalLabelPosition=bottom;sketch=0;aspect=fixed;html=1;verticalAlign=top;strokeColor=none;align=center;outlineConnect=0;shape=mxgraph.citrix.role_appcontroller;fillColor=#CCCCCC;gradientColor=#000000;gradientDirection=south;" vertex="1" parent="1">
          <mxGeometry x="335" y="1010" width="68" height="68" as="geometry" />
        </mxCell>
        <mxCell id="_AiRwu0lAD3Z_JFmDLvR-99" value="Master DataBase" style="text;html=1;align=center;verticalAlign=middle;whiteSpace=wrap;rounded=0;" vertex="1" parent="1">
          <mxGeometry x="470" y="760" width="60" height="30" as="geometry" />
        </mxCell>
        <mxCell id="_AiRwu0lAD3Z_JFmDLvR-100" value="Slave DataBase" style="text;html=1;align=center;verticalAlign=middle;whiteSpace=wrap;rounded=0;" vertex="1" parent="1">
          <mxGeometry x="690" y="760" width="60" height="30" as="geometry" />
        </mxCell>
        <mxCell id="_AiRwu0lAD3Z_JFmDLvR-101" value="IP: 8.8.8.8" style="text;html=1;align=center;verticalAlign=middle;whiteSpace=wrap;rounded=0;" vertex="1" parent="1">
          <mxGeometry x="630" y="535" width="60" height="30" as="geometry" />
        </mxCell>
      </root>
    </mxGraphModel>
  </diagram>
</mxfile>
